<svg width="342" height="382" viewBox="0 0 342 382" fill="none" xmlns="http://www.w3.org/2000/svg">
<path d="M36.3752 301.803C34.1522 302.727 31.6898 305.73 33.4682 307.487C34.0907 308.106 35.0072 308.175 35.8417 308.213C120.794 311.72 205.795 312.56 290.823 310.734C293.19 310.681 296.008 310.337 297.116 307.999C298.224 305.661 296.699 302.552 294.517 301.39C292.335 300.229 289.818 300.42 287.417 300.581C277.027 301.283 266.596 300.886 256.268 299.404C252.984 298.938 249.626 298.327 246.692 296.646C244.674 295.492 242.888 293.865 240.843 292.78C237.485 290.969 233.648 290.687 229.927 290.458C202.273 288.739 174.584 288.265 146.869 289.037C133.024 289.426 119.194 290.121 105.37 291.122C99.9325 291.52 93.6055 291.038 88.4755 293.231C83.3455 295.424 79.3167 297.868 73.7558 298.579C61.3754 300.16 48.3726 296.898 36.3752 301.795V301.803Z" fill="url(#paint0_linear_48_64)"/>
<path opacity="0.18" d="M105.89 47.2152C117.381 41.6991 130.473 44.8239 142.976 44.9538C160.48 45.0913 178.688 39.2314 195.002 46.222C204.707 50.34 212.505 58.6523 220.009 66.6972C231.26 78.799 242.745 91.2369 249.831 106.792C252.738 113.24 254.954 120.246 259.181 125.678C267.04 135.648 279.838 137.849 290.844 142.899C311.145 152.28 326.74 173.757 329.832 198.021C332.923 222.293 323.046 248.285 304.777 261.792C288.764 273.627 268.703 275.491 249.544 277.019L137.381 285.988C112.203 287.982 86.4233 289.976 62.2166 281.931C40.8279 274.887 19.8907 258.194 12.1957 233.99C3.09162 205.531 16.2997 177.072 27.6746 151.944C34.8155 136.175 43.3861 122.355 53.5093 108.809C67.9143 89.6478 84.9391 57.2618 105.89 47.2305V47.2152Z" fill="#68E1FD"/>
<path d="M260.604 199.007H102.675V212.835H260.604V199.007Z" fill="#68E1FD"/>
<path d="M224.229 212.4H129.043V309.58H224.229V212.4Z" fill="#68E1FD"/>
<path d="M224.229 212.774H129.043V309.58H224.229V212.774Z" fill="url(#paint1_linear_48_64)"/>
<path d="M260.44 199.007H102.511V212.835H260.44V199.007Z" fill="url(#paint2_linear_48_64)"/>
<path d="M90.0214 298.808C89.9803 299.45 90.1103 300.092 90.3771 300.665C90.7738 301.291 91.3073 301.795 91.9229 302.131C95.8901 304.576 100.008 306.715 104.249 308.511C105.261 308.908 106.328 309.374 107.402 309.237C108.476 309.099 109.543 308.236 109.666 307.044C109.789 306.043 109.187 305.119 108.654 304.324C105.794 300.069 102.84 295.813 99.7821 291.688C99.5974 291.413 99.3785 291.168 99.1322 290.962C98.7971 290.778 98.4346 290.664 98.0584 290.626C96.0337 290.289 92.4017 288.83 90.7396 290.893C89.2485 292.696 89.9598 296.577 90.0282 298.808H90.0214Z" fill="#68E1FD"/>
<path d="M90.0214 298.808C89.9803 299.45 90.1103 300.092 90.3771 300.665C90.7738 301.291 91.3073 301.795 91.9229 302.131C95.8901 304.576 100.008 306.715 104.249 308.511C105.261 308.908 106.328 309.374 107.402 309.237C108.476 309.099 109.543 308.236 109.666 307.044C109.789 306.043 109.187 305.119 108.654 304.324C105.794 300.069 102.84 295.813 99.7821 291.688C99.5974 291.413 99.3785 291.168 99.1322 290.962C98.7971 290.778 98.4346 290.664 98.0584 290.626C96.0337 290.289 92.4017 288.83 90.7396 290.893C89.2485 292.696 89.9598 296.577 90.0282 298.808H90.0214Z" fill="url(#paint3_linear_48_64)"/>
<path d="M66.0677 260.18C67.9418 260.18 69.4603 261.869 69.4672 263.962V297.28H62.6682V263.97C62.6682 261.876 64.1867 260.18 66.0609 260.18C66.0609 260.18 66.0608 260.18 66.0677 260.18Z" fill="#68E1FD"/>
<path d="M80.7122 293.223H52.4972C51.2808 293.223 50.2947 294.325 50.2947 295.683C50.2947 297.042 51.2808 298.143 52.4972 298.143H80.7122C81.9286 298.143 82.9146 297.042 82.9146 295.683C82.9146 294.325 81.9286 293.223 80.7122 293.223Z" fill="#68E1FD"/>
<path d="M66.0677 260.18C67.9418 260.18 69.4672 261.693 69.4672 263.565V293.277H62.6682V263.565C62.6682 261.693 64.1935 260.18 66.0677 260.18Z" fill="url(#paint4_linear_48_64)"/>
<path d="M80.7122 293.223H52.4972C51.2808 293.223 50.2947 294.325 50.2947 295.683C50.2947 297.042 51.2808 298.143 52.4972 298.143H80.7122C81.9286 298.143 82.9146 297.042 82.9146 295.683C82.9146 294.325 81.9286 293.223 80.7122 293.223Z" fill="url(#paint5_linear_48_64)"/>
<path d="M51.3617 305.256C53.0692 305.256 54.4534 303.71 54.4534 301.803C54.4534 299.896 53.0692 298.35 51.3617 298.35C49.6542 298.35 48.27 299.896 48.27 301.803C48.27 303.71 49.6542 305.256 51.3617 305.256Z" fill="#68E1FD"/>
<path d="M66.307 305.256C68.0145 305.256 69.3987 303.71 69.3987 301.803C69.3987 299.896 68.0145 298.35 66.307 298.35C64.5995 298.35 63.2153 299.896 63.2153 301.803C63.2153 303.71 64.5995 305.256 66.307 305.256Z" fill="#68E1FD"/>
<path d="M81.2455 305.256C82.953 305.256 84.3372 303.71 84.3372 301.803C84.3372 299.896 82.953 298.35 81.2455 298.35C79.538 298.35 78.1538 299.896 78.1538 301.803C78.1538 303.71 79.538 305.256 81.2455 305.256Z" fill="#68E1FD"/>
<path d="M51.3617 305.256C53.0692 305.256 54.4534 303.71 54.4534 301.803C54.4534 299.896 53.0692 298.35 51.3617 298.35C49.6542 298.35 48.27 299.896 48.27 301.803C48.27 303.71 49.6542 305.256 51.3617 305.256Z" fill="url(#paint6_linear_48_64)"/>
<path d="M51.3411 303.698C52.2515 303.698 52.9895 302.873 52.9895 301.856C52.9895 300.839 52.2515 300.015 51.3411 300.015C50.4307 300.015 49.6926 300.839 49.6926 301.856C49.6926 302.873 50.4307 303.698 51.3411 303.698Z" fill="url(#paint7_linear_48_64)"/>
<path d="M66.307 305.256C68.0145 305.256 69.3987 303.71 69.3987 301.803C69.3987 299.896 68.0145 298.35 66.307 298.35C64.5995 298.35 63.2153 299.896 63.2153 301.803C63.2153 303.71 64.5995 305.256 66.307 305.256Z" fill="url(#paint8_linear_48_64)"/>
<path d="M66.2659 303.53C67.1687 303.53 67.9006 302.712 67.9006 301.704C67.9006 300.695 67.1687 299.878 66.2659 299.878C65.363 299.878 64.6311 300.695 64.6311 301.704C64.6311 302.712 65.363 303.53 66.2659 303.53Z" fill="url(#paint9_linear_48_64)"/>
<path d="M81.2455 305.256C82.953 305.256 84.3372 303.71 84.3372 301.803C84.3372 299.896 82.953 298.35 81.2455 298.35C79.538 298.35 78.1538 299.896 78.1538 301.803C78.1538 303.71 79.538 305.256 81.2455 305.256Z" fill="url(#paint10_linear_48_64)"/>
<path d="M81.2183 303.682C82.1627 303.682 82.9283 302.827 82.9283 301.772C82.9283 300.718 82.1627 299.862 81.2183 299.862C80.2739 299.862 79.5083 300.718 79.5083 301.772C79.5083 302.827 80.2739 303.682 81.2183 303.682Z" fill="url(#paint11_linear_48_64)"/>
<path d="M174.379 113.996L145.7 117.714L150.86 167.376L179.54 163.659L174.379 113.996Z" fill="white"/>
<path d="M174.379 113.996L145.7 117.714L150.86 167.376L179.54 163.659L174.379 113.996Z" fill="#68E1FD"/>
<path opacity="0.69" d="M174.379 113.996L145.7 117.714L150.86 167.376L179.54 163.659L174.379 113.996Z" fill="url(#paint12_linear_48_64)"/>
<path d="M156.041 138.093C156.362 138.078 156.677 138.192 156.93 138.406C157.299 138.781 157.265 139.445 157.108 139.972C156.615 141.623 155.261 142.753 154.536 144.297C152.73 148.101 155.138 153.113 153.483 156.971C152.826 158.484 151.629 159.623 150.179 160.096C149.81 159.065 149.646 157.957 149.687 156.849C149.652 152.502 150.528 137.81 156.041 138.093Z" fill="url(#paint13_linear_48_64)"/>
<path d="M37.9689 129.062C36.8334 124.738 35.5886 120.284 32.8457 116.961C30.1097 113.637 25.4038 111.911 21.9496 114.18C20.8757 121.896 19.8087 129.804 21.0536 137.52C22.3053 145.229 26.2314 152.831 32.5995 155.94C27.0044 160.669 27.0044 169.891 27.5379 177.668C28.7828 195.691 30.1029 213.706 31.3478 231.729C31.7034 236.779 32.0591 241.898 34.029 246.489C37.2438 254.137 44.4464 258.927 51.8267 260.723C59.2071 262.518 66.8816 261.723 74.385 260.921C79.5082 260.386 84.8024 259.722 89.091 256.597C93.3797 253.472 96.3551 247.223 94.392 241.966C91.7244 234.785 82.9624 234.319 75.9377 234.059C69.3782 233.86 62.8665 232.791 56.5326 230.865C55.1031 230.468 53.6256 229.941 52.4834 228.803C51.1154 227.412 50.5203 225.349 50.0483 223.416C45.7596 206.524 45.2261 188.272 46.5326 170.785C47.7022 156.154 41.7104 142.96 37.9552 129.062H37.9689Z" fill="#231F20"/>
<path d="M87.6136 243.158C89.0431 259.118 89.0431 275.208 89.0431 291.229C93.0514 291.55 97.0733 291.642 101.088 291.497C101.061 287.669 101.3 283.849 101.8 280.06C102.155 277.47 102.696 274.872 103.106 272.213C104.987 260.654 104.679 248.789 102.21 237.367C101.861 235.595 101.383 233.86 100.781 232.18C100.363 231.049 99.7683 229.857 98.756 229.399C97.7436 228.94 96.4372 229.33 95.3633 229.735C93.2224 230.529 91.0199 231.332 88.8721 232.195C87.3879 232.73 84.5287 233.196 83.8174 234.922C83.106 236.519 84.1731 237.65 85.1854 238.574C86.7791 239.98 87.4289 240.691 87.6067 243.151L87.6136 243.158Z" fill="#231F20"/>
<path d="M87.6136 243.158C89.0431 259.118 89.0431 275.208 89.0431 291.229C93.0514 291.55 97.0733 291.642 101.088 291.497C101.061 287.669 101.3 283.849 101.8 280.06C102.155 277.47 102.696 274.872 103.106 272.213C104.987 260.654 104.679 248.789 102.21 237.367C101.861 235.595 101.383 233.86 100.781 232.18C100.363 231.049 99.7683 229.857 98.756 229.399C97.7436 228.94 96.4372 229.33 95.3633 229.735C93.2224 230.529 91.0199 231.332 88.8721 232.195C87.3879 232.73 84.5287 233.196 83.8174 234.922C83.106 236.519 84.1731 237.65 85.1854 238.574C86.7791 239.98 87.4289 240.691 87.6067 243.151L87.6136 243.158Z" fill="url(#paint14_linear_48_64)"/>
<path d="M69.9322 137.841C67.9691 137.505 65.9445 137.176 63.9814 137.375C62.716 137.558 61.4643 137.864 60.2468 138.299C57.627 139.094 55.0689 140.026 52.7501 141.623C49.0565 144.213 46.5599 148.407 44.2959 152.594C41.4026 157.881 38.8581 163.389 36.6761 169.081C35.1918 173.069 33.9401 177.324 34.2411 181.649C34.3574 183.039 34.5968 184.43 35.315 185.576C36.0674 186.729 37.0181 187.7 38.1125 188.433C39.4805 189.503 40.7938 190.565 42.1618 191.626C43.2357 192.497 44.6037 193.353 45.7323 192.627C46.2658 205.615 46.4436 218.489 46.9772 231.393C47.0387 233.249 48.4067 236.649 50.0141 237.245C51.1496 237.642 51.259 235.717 52.2166 234.983C59.0498 229.781 64.6449 222.752 71.396 217.297C78.147 211.842 86.5739 207.854 94.5494 210.253C93.6533 197.555 92.8872 184.789 92.2306 172.083C101.041 174.742 108.482 181.725 117.354 184.185C118.544 184.521 119.796 184.781 120.986 184.521C122.292 184.254 123.421 183.322 124.495 182.458C132.06 176.476 139.68 170.494 147.238 164.504C147.799 164.168 148.237 163.626 148.483 162.976C148.784 162.052 148.305 161.12 147.888 160.257C146.643 157.865 145.446 155.466 144.194 153.144C137.026 159.676 128.619 164.298 119.611 166.644C118.243 166.972 116.814 167.308 115.459 166.842C114.105 166.376 113.079 165.375 112.067 164.382C107.244 159.592 102.662 154.412 97.4837 150.157C92.3058 145.901 86.4098 142.379 79.9802 141.309C76.6559 140.782 72.5998 140.515 70.9377 137.191C70.5957 137.39 70.2674 137.612 69.9527 137.856L69.9322 137.841Z" fill="#68E1FD"/>
<path d="M148.455 162.984C148.209 163.641 147.771 164.176 147.21 164.512C139.652 170.494 132.032 176.476 124.467 182.466C123.394 183.337 122.265 184.262 120.958 184.529C119.768 184.796 118.517 184.529 117.326 184.193C108.455 181.733 101.02 174.75 92.2031 172.091L93.7011 147.452C98.537 151.562 107.47 159.852 112.032 164.375C113.045 165.375 114.112 166.437 115.425 166.835C116.738 167.232 118.222 166.965 119.577 166.636C128.585 164.291 136.998 159.676 144.16 153.136C145.405 155.459 146.602 157.858 147.853 160.249C148.277 161.12 148.756 162.044 148.455 162.969V162.984Z" fill="#68E1FD"/>
<path d="M148.455 162.984C148.209 163.641 147.771 164.176 147.21 164.512C139.652 170.494 132.032 176.476 124.467 182.466C123.394 183.337 122.265 184.262 120.958 184.529C119.768 184.796 118.517 184.529 117.326 184.193C108.455 181.733 101.02 174.75 92.2031 172.091L93.7011 147.452C98.537 151.562 107.47 159.852 112.032 164.375C113.045 165.375 114.112 166.437 115.425 166.835C116.738 167.232 118.222 166.965 119.577 166.636C128.585 164.291 136.998 159.676 144.16 153.136C145.405 155.459 146.602 157.858 147.853 160.249C148.277 161.12 148.756 162.044 148.455 162.969V162.984Z" fill="url(#paint15_linear_48_64)"/>
<path d="M92.1964 172.083C92.853 184.781 93.626 197.547 94.5152 210.253C86.5397 207.861 78.0855 211.85 71.3618 217.297C64.6312 222.744 59.0429 229.781 52.1961 234.983C51.2385 235.717 51.1222 237.642 49.9936 237.245C48.3862 236.649 47.0182 233.257 46.9567 231.393C46.4231 218.496 46.2453 205.6 45.7118 192.627C44.5832 193.361 43.222 192.497 42.1413 191.626C40.7733 190.564 39.46 189.503 38.092 188.433C36.9976 187.699 36.0469 186.729 35.2945 185.576C34.5831 184.445 34.3369 183.047 34.2206 181.649C33.9196 177.332 35.1713 173.069 36.6556 169.081C38.8376 163.389 41.3821 157.873 44.2754 152.594C46.5394 148.422 49.036 144.22 52.7296 141.623C55.0484 140.026 57.6065 139.094 60.2263 138.299C61.4438 137.864 62.6955 137.551 63.9609 137.375C65.924 137.176 67.9486 137.505 69.9117 137.841C70.2195 137.596 70.5341 137.375 70.8693 137.176C72.5314 140.5 76.5807 140.767 79.9118 141.294C83.4617 141.928 86.8954 143.196 90.0828 145.045C92.6547 146.489 91.3688 145.55 93.667 147.437C93.9543 147.666 92.8873 154.496 93.1677 154.741L92.1827 172.076L92.1964 172.083Z" fill="url(#paint16_linear_48_64)"/>
<path d="M56.7105 198.617V194.866C56.7037 194.767 56.7242 194.66 56.7721 194.576C56.861 194.484 56.9841 194.446 57.1072 194.461L70.0622 194.644C70.2948 194.614 70.5273 194.698 70.6983 194.881C70.7872 195.057 70.8146 195.255 70.7804 195.454L70.6368 197.677C70.6915 197.929 70.5547 198.174 70.3358 198.243C70.2674 198.266 70.1922 198.258 70.1169 198.243H63.8036C61.9089 198.243 59.3234 197.716 57.4903 198.243C56.3548 198.571 56.6216 198.854 56.5942 200.298C56.5669 201.413 56.5464 202.529 56.5327 203.644C56.4985 205.867 56.4848 208.098 56.4916 210.329C56.4916 214.042 56.56 217.793 56.8678 221.507C56.9089 222.018 58.0375 227.634 57.9691 227.71L50.2467 236.527C50.2467 236.527 47.4013 236.122 47.2098 230.674C47.0182 225.227 45.4929 192.047 45.4929 192.047L51.4779 178.05L58.4068 160.83C58.4068 160.83 57.0867 180.22 56.6284 198.258" fill="url(#paint17_linear_48_64)"/>
<path d="M83.9815 150.676C81.3139 139.3 78.7763 141.638 74.5833 142.387C70.3904 143.135 70.11 148.682 70.11 148.682C71.2317 155.68 71.3549 172.397 71.2317 183.765C71.177 193.407 69.5286 201.589 70.8966 211.093C71.0197 212.018 69.2345 213.576 70.0689 213.973C70.5683 214.172 71.1155 214.172 71.6148 213.973C75.6025 212.904 78.7557 209.183 82.805 208.457C83.2838 208.389 83.8173 208.259 83.9952 207.861C84.0704 207.693 84.1115 207.51 84.1183 207.327C85.2469 197.227 86.3208 187.119 87.4425 176.942C87.7435 174.016 88.0992 171.021 87.7435 168.034C87.0869 162.518 84.2893 151.547 84.1115 151.746" fill="white"/>
<path d="M70.2536 149.805C70.5683 152.387 71.7584 154.481 73.359 156.376C73.4479 156.505 73.5779 156.597 73.7215 156.628C73.8515 156.628 73.9814 156.567 74.084 156.475C75.3426 155.558 76.3481 154.275 76.991 152.762C77.4083 153.931 77.5861 155.191 77.4972 156.444C77.3057 159.317 77.7229 162.335 77.3741 165.184C76.5669 171.869 75.7667 177.317 73.53 185.087C75.3563 186.072 78.5574 184.368 79.3098 182.26C80.0622 180.151 79.7817 177.806 79.6381 175.544C79.0293 165.872 81.1976 156.016 79.4534 146.512C79.4055 145.947 79.1798 145.42 78.8105 145.022C78.4206 144.755 77.9623 144.64 77.504 144.679C75.6709 144.648 73.8446 144.694 72.0115 144.824C71.5395 144.809 71.0676 144.946 70.664 145.229C69.8364 145.932 70.1168 148.667 70.2536 149.797V149.805Z" fill="url(#paint18_linear_48_64)"/>
<path d="M66.3616 138.238C66.1838 138.903 66.4847 139.568 66.7173 140.232C68.7967 145.221 71.1223 150.073 73.5641 154.794C74.8022 151.746 76.2523 148.812 77.9075 146.016C78.0033 145.832 78.1469 145.695 78.3248 145.618C78.5231 145.634 78.701 145.764 78.8036 145.955C80.3494 147.75 81.9568 149.545 83.9815 150.676C84.9938 151.203 86.1224 151.677 86.7175 152.739C87.3741 152.8 87.4972 151.738 87.3741 151.012C86.7927 148.338 85.9719 145.733 84.9322 143.235C84.1046 141.241 82.9076 139.063 80.9445 138.651C79.9937 138.452 78.9814 138.712 78.0375 138.712C75.1305 138.781 73.9335 136.649 71.6695 135.19C69.8158 133.922 66.9635 136.053 66.3616 138.246V138.238Z" fill="white"/>
<path d="M77.9145 152.273C78.2496 152.708 78.5437 153.174 78.8105 153.663C79.2893 154.863 78.8105 156.184 78.4548 157.453C77.6819 160.111 77.4425 162.969 77.2646 165.826C76.7311 175.002 76.3686 184.177 74.8843 193.216C74.686 194.125 74.6107 195.064 74.6449 195.997C74.7886 196.959 75.0895 197.884 75.541 198.716L77.6819 203.507C79.1867 201.054 80.3495 198.365 81.1361 195.53C81.3345 194.812 81.4713 194.079 81.5533 193.338C81.5875 192.261 81.4644 191.183 81.1976 190.144C80.069 184.292 80.37 179.677 80.6915 173.191C81.2866 168.271 82.0937 162.816 82.3878 157.881C82.4425 156.62 82.3878 155.153 81.5602 154.229C81.266 153.961 80.9104 153.694 80.8488 153.304C80.8078 153.037 80.8283 152.762 80.9104 152.51C81.0882 151.715 81.3276 150.913 81.5055 150.118C81.5807 149.935 81.6012 149.721 81.5602 149.522C81.5054 149.186 81.1429 148.988 80.8488 148.858C79.6723 148.216 78.7558 147.101 78.2906 145.733C78.4138 146.069 77.0458 148.124 76.9842 148.789C76.9158 150.042 77.251 151.28 77.9281 152.28L77.9145 152.273Z" fill="#68E1FD"/>
<path d="M145.357 150.141C145.295 149.079 145.179 147.949 145.473 146.948C145.767 145.947 146.486 145.091 147.204 144.289C149.345 141.966 151.431 139.652 153.572 137.375C153.968 138.643 153.886 140.034 153.332 141.233C152.977 142.028 152.382 142.692 152.142 143.556C152.019 144.052 151.958 144.564 151.964 145.084C151.964 147.742 152.382 150.47 152.081 153.128C151.78 155.787 150.535 158.576 148.271 159.508C148.086 159.592 147.874 159.615 147.676 159.577C147.518 159.531 147.375 159.439 147.258 159.309C145.966 158.179 145.029 156.62 144.577 154.855C144.16 153.136 145.405 151.853 145.35 150.141H145.357Z" fill="#FFB4A3"/>
<path d="M90.9309 189.839C89.5014 192.834 89.3372 193.491 85.37 196.478C85.2879 196.684 85.1648 196.86 85.0143 197.013C84.8844 197.066 84.7407 197.089 84.5971 197.081C80.6094 197.28 76.6216 196.348 72.6886 195.882C65.3083 195.087 48.0715 195.454 42.8662 192.093C39.8293 191.023 33.9742 186.156 34.0358 182.627C34.0358 180.098 33.7554 174.513 35.5406 172.985C35.7663 172.794 35.8826 170.807 36.2656 170.769C37.0454 169.257 36.5666 168.813 39.5215 162.266C46.8813 145.924 52.7364 141.63 55.9854 140.309C59.2344 138.987 60.1783 157.537 59.679 160.157C59.1796 162.778 51.5052 178.058 51.5052 178.058C51.5052 178.058 55.7938 179.418 58.8787 180.312C69.0566 183.307 79.7133 183.964 90.2469 184.567C90.4248 185.568 91.3482 188.899 90.9309 189.823V189.839Z" fill="#68E1FD"/>
<path d="M90.8488 188.341C89.4193 191.336 89.604 191.909 88.1607 194.896C88.0444 195.095 84.7818 196.631 84.6313 197.013C84.6313 197.051 84.6039 197.074 84.5902 197.074C80.6025 197.272 76.6148 196.34 72.6818 195.874C65.3014 195.08 48.0646 195.446 42.8594 192.085C39.8224 191.015 33.9674 186.149 34.029 182.619C34.029 180.09 33.7485 174.505 35.5338 172.977C35.7595 172.786 35.8758 170.8 36.2588 170.762C37.0386 169.257 36.5598 168.806 39.5146 162.258C46.8813 145.924 52.7364 141.63 55.9785 140.309C59.2207 138.987 60.1714 157.537 59.6721 160.157C59.1728 162.778 51.4983 178.058 51.4983 178.058C51.4983 178.058 55.8075 179.448 58.8718 180.312C68.954 183.276 79.4876 183.956 89.9254 184.544H90.2401C90.4179 185.56 91.2592 187.394 90.842 188.326L90.8488 188.341Z" fill="url(#paint19_linear_48_64)"/>
<path d="M90.8488 188.341C89.4193 191.336 89.6518 191.497 88.2223 194.491C88.0991 194.69 84.7817 196.631 84.6313 197.02C84.4534 196.829 84.2893 196.608 84.1456 196.379C83.0444 194.553 82.8871 192.207 83.7284 190.221C84.1798 189.25 84.7954 188.387 85.5273 187.661C86.7927 186.317 88.2838 185.27 89.9117 184.559H90.2264C90.4247 185.576 91.2592 187.409 90.842 188.341H90.8488Z" fill="url(#paint20_linear_48_64)"/>
<path d="M95.1172 187.99C95.9448 188.387 96.7246 188.853 97.4975 189.319C101.718 191.84 105.952 194.423 109.7 197.693C110.117 198.09 110.596 198.556 110.596 199.152C110.596 199.946 109.823 200.42 109.112 200.68C105.938 201.788 102.525 201.696 99.4059 200.412C97.0255 199.412 94.7615 197.754 92.2649 197.486C91.6698 197.456 91.0816 197.395 90.4933 197.295C89.6178 197.036 88.797 196.615 88.0583 196.035C86.5125 194.965 84.9051 193.376 85.0213 191.313C85.1992 187.99 88.6534 187.142 91.0952 187.142C92.4632 187.142 93.8313 187.669 95.1377 187.539C97.2786 187.34 99.4879 187.806 101.684 187.806C102.039 187.761 102.395 187.852 102.696 188.074C103.017 188.448 103.093 189.006 102.874 189.464C102.456 190.664 101.212 191.191 100.076 191.458C98.886 191.795 97.6343 192.054 96.4441 191.795C95.7943 191.672 95.2129 191.267 94.8367 190.664C94.6589 190.343 94.5358 189.976 94.4811 189.602C94.4058 189.014 94.4879 188.41 94.7204 187.875" fill="#FFB4A3"/>
<path d="M49.9937 237.245C64.4877 241.424 79.8435 239.514 93.1541 231.859C92.9763 234.777 103.448 277.317 105.534 285.201C105.726 285.889 106.321 286.332 106.964 286.263C110.056 285.866 111.013 287.921 118.749 283.016C113.216 278.379 114.94 230.292 111.903 223.371C110.295 219.711 108.804 215.524 105.473 213.859C101.779 212.002 96.8409 213.996 93.7423 211.078C93.7423 211.078 90.7875 206.761 79.6246 211.75C68.4617 216.739 49.8706 234.556 49.9869 237.237L49.9937 237.245Z" fill="#231F20"/>
<path d="M49.9937 237.245C64.4877 241.424 79.8435 239.514 93.1541 231.859C92.9763 234.777 103.448 277.317 105.534 285.201C105.726 285.889 106.321 286.332 106.964 286.263C110.056 285.866 111.013 287.921 118.749 283.016C113.216 278.379 114.94 230.292 111.903 223.371C110.295 219.711 108.804 215.524 105.473 213.859C101.779 212.002 96.8409 213.996 93.7423 211.078C93.7423 211.078 90.7875 206.761 79.6246 211.75C68.4617 216.739 49.8706 234.556 49.9869 237.237L49.9937 237.245Z" fill="url(#paint21_linear_48_64)"/>
<path d="M110.233 295.485C110.363 295.912 110.616 296.287 110.945 296.554C111.287 296.715 111.649 296.806 112.019 296.822C117.614 296.89 122.969 294.629 128.216 292.436C129.584 291.84 130.959 291.237 132.026 290.114C133.1 288.991 133.571 287.119 132.922 285.66C132.094 283.933 130.015 283.597 128.277 283.528C125.658 283.398 123.038 283.2 120.418 283.062C119.939 283.016 119.461 283.039 118.989 283.131C118.394 283.337 117.812 283.604 117.258 283.925C115.863 284.773 114.385 285.446 112.853 285.919C111.779 286.255 110.172 286.255 109.283 287.188C107.367 289.151 109.392 293.361 110.227 295.485H110.233Z" fill="#68E1FD"/>
<path d="M110.233 295.485C110.363 295.912 110.616 296.287 110.945 296.554C111.287 296.715 111.649 296.806 112.019 296.822C117.614 296.89 122.969 294.629 128.216 292.436C129.584 291.84 130.959 291.237 132.026 290.114C133.1 288.991 133.571 287.119 132.922 285.66C132.094 283.933 130.015 283.597 128.277 283.528C125.658 283.398 123.038 283.2 120.418 283.062C119.939 283.016 119.461 283.039 118.989 283.131C118.394 283.337 117.812 283.604 117.258 283.925C115.863 284.773 114.385 285.446 112.853 285.919C111.779 286.255 110.172 286.255 109.283 287.188C107.367 289.151 109.392 293.361 110.227 295.485H110.233Z" fill="url(#paint22_linear_48_64)"/>
<path d="M95.3565 105.791C95.4112 108.572 96.1294 111.773 98.3319 112.973C98.8039 113.24 99.4058 113.439 99.7615 113.973C100.233 114.707 99.8777 115.83 99.2827 116.502C98.6876 117.175 97.9147 117.564 97.258 118.16C95.9447 119.36 95.4112 121.285 95.1787 123.149C94.9461 125.013 94.823 126.862 94.2279 128.604C93.2019 131.423 90.9105 133.425 88.2155 133.853C87.0801 133.99 85.8968 133.853 84.6998 133.99C83.5028 134.128 82.3195 134.586 81.6628 135.648C80.8352 136.978 81.0677 138.972 80.0554 140.034C79.0431 141.095 77.3194 140.828 75.9514 140.37C74.344 139.904 72.6272 139.3 71.7243 137.78C71.2934 136.97 71.0266 136.061 70.9514 135.121C70.1785 129.674 71.3071 124.089 70.5957 118.703C70.2947 116.571 69.6997 114.531 69.4671 112.323C69.1046 109.596 69.2277 106.822 69.8228 104.148C70.6504 100.558 72.5041 97.0356 75.4179 95.3013C77.7982 93.9108 80.6573 93.7733 83.3933 93.972C86.8749 94.2012 90.2949 95.0798 93.5165 96.5696C96.3004 97.8989 95.2949 102.88 95.3497 105.806L95.3565 105.791Z" fill="#FFB4A3"/>
<path d="M93.0925 91.5501C94.0296 92.2912 94.8162 93.2385 95.4113 94.3311C95.9448 95.4618 96.0064 96.9898 95.2335 97.9906C94.6384 98.7852 93.6261 99.1214 92.7437 99.3811C88.8175 100.512 84.4057 101.444 80.8353 99.2436C80.7258 99.1672 80.6027 99.129 80.4796 99.1137C80.1239 99.1137 79.8845 99.5798 79.8298 99.977C78.7969 104.553 78.1813 109.229 77.983 113.935C77.511 114.134 77.1553 113.469 76.9091 113.011C76.6355 112.354 76.1772 111.819 75.6027 111.483C75.0076 111.147 74.2347 111.147 73.8174 111.682C73.6054 111.926 73.4412 112.224 73.3386 112.545C72.5657 115.074 73.9953 118.191 76.2456 118.993C74.8161 120.124 74.1663 122.057 73.3386 123.783C72.853 124.861 72.2579 125.861 71.5534 126.778C71.0814 127.374 70.5411 128.039 69.8297 128.108C69.1731 128.123 68.5506 127.771 68.1676 127.183C67.8119 126.564 67.5315 125.892 67.3399 125.189C66.8611 123.592 66.4439 122.064 65.9719 120.468C65.4247 118.726 64.9665 116.945 64.6039 115.15C64.2825 113.401 64.0567 111.628 63.9199 109.848C63.8037 108.457 63.6805 107.128 63.5643 105.73C63.4001 104.515 63.3796 103.285 63.5095 102.07C63.6874 100.344 64.4056 98.747 65.1717 97.1502C65.6573 96.0424 66.2797 95.011 67.0185 94.0866C67.7845 93.2004 68.8242 92.6732 69.9255 92.6273C70.1991 92.6579 70.4795 92.6579 70.7531 92.6273C71.0062 92.5127 71.2319 92.3294 71.4097 92.0925C73.6054 89.9992 76.2867 88.6393 79.1458 88.1656C81.8407 87.6461 84.5836 87.5544 87.2991 87.8982C89.4742 88.2955 91.3757 90.0909 93.0994 91.5425L93.0925 91.5501Z" fill="#231F20"/>
<path d="M86.7518 133.837C86.7518 133.837 80.8283 131.591 78.9337 133.341C77.039 135.09 75.9583 140.37 75.9583 140.37C75.9583 140.37 78.6053 141.371 80.0623 140.034C81.5192 138.704 80.9993 135.893 82.6409 134.961C84.2825 134.028 86.7518 133.837 86.7518 133.837Z" fill="#FFB4A3"/>
<path d="M90.0691 186.072L91.6287 186.569L91.5739 187.126C91.5739 187.126 88.4481 187.44 87.4973 188.937C86.5465 190.435 84.3099 192.742 87.2169 195.431L85.9309 195.997C85.9309 195.997 83.4207 194.247 84.4261 191.825C85.4316 189.396 85.8694 187.631 90.0691 186.072Z" fill="white"/>
<path d="M144.201 153.335L144.844 152.624C144.844 152.624 148.114 159.302 148.531 159.485C148.948 159.668 147.833 160.616 147.833 160.616C147.833 160.616 144.119 156.467 144.201 153.342V153.335Z" fill="white"/>
<path d="M109.194 292.811C109.194 292.811 119.837 292.154 124.112 289.533C128.387 286.913 128.893 287.57 128.893 287.57L128.811 291.688C128.811 291.688 115.986 298.143 110.664 296.088L109.194 292.811Z" fill="url(#paint23_linear_48_64)"/>
<path d="M90.0076 297.036C90.0076 297.036 94.6999 301.283 97.8326 302.399C100.965 303.522 105.822 307.204 107.053 306.7C107.833 306.349 108.496 305.745 108.948 304.958C108.948 304.958 109.987 306.181 109.659 307.067C109.337 307.953 108.496 310.635 104.7 308.396C100.904 306.15 92.2922 302.903 90.8421 301.092C89.9871 299.977 89.6725 298.457 90.0008 297.036H90.0076Z" fill="url(#paint24_linear_48_64)"/>
<path d="M271.138 147.444C273.538 147.887 281.028 148.835 281.863 146.321C282.28 145.137 280.755 139.621 280.748 138.337C280.748 135.472 278.607 134.411 277.663 131.752C277.601 131.53 277.492 131.332 277.328 131.186C276.986 131.026 276.589 131.095 276.302 131.355C274.017 132.86 268.935 133.784 268.121 136.718C271.466 138.337 270.091 145.053 271.138 147.452V147.444Z" fill="#FFB4A3"/>
<path d="M239.468 293.361C235.193 294.102 230.843 294.148 226.555 293.491C227.628 290.572 228.695 287.508 228.579 284.315C228.518 282.054 227.806 279.861 227.211 277.668C225.118 270.25 223.901 262.564 223.579 254.794C223.518 252.8 223.518 250.668 224.591 249.072C225.31 248.01 226.438 247.414 227.567 246.948C236.739 243.235 236.972 254.595 237.628 261.441C238.702 272.083 239.291 282.718 239.475 293.361H239.468Z" fill="#FFB4A3"/>
<path d="M267.198 260.18C269.072 260.18 270.59 261.876 270.59 263.97V297.28H263.805V263.97C263.805 261.876 265.324 260.18 267.198 260.18Z" fill="#68E1FD"/>
<path d="M281.835 293.223H253.62C252.404 293.223 251.418 294.325 251.418 295.683C251.418 297.042 252.404 298.143 253.62 298.143H281.835C283.052 298.143 284.038 297.042 284.038 295.683C284.038 294.325 283.052 293.223 281.835 293.223Z" fill="#68E1FD"/>
<path d="M267.198 260.18C269.072 260.18 270.59 261.693 270.59 263.565V293.277H263.805V263.565C263.805 261.693 265.324 260.18 267.198 260.18Z" fill="url(#paint25_linear_48_64)"/>
<path d="M281.835 293.223H253.62C252.404 293.223 251.418 294.325 251.418 295.683C251.418 297.042 252.404 298.143 253.62 298.143H281.835C283.052 298.143 284.038 297.042 284.038 295.683C284.038 294.325 283.052 293.223 281.835 293.223Z" fill="url(#paint26_linear_48_64)"/>
<path d="M252.492 305.256C254.199 305.256 255.584 303.71 255.584 301.803C255.584 299.896 254.199 298.35 252.492 298.35C250.784 298.35 249.4 299.896 249.4 301.803C249.4 303.71 250.784 305.256 252.492 305.256Z" fill="#68E1FD"/>
<path d="M267.43 305.256C269.138 305.256 270.522 303.71 270.522 301.803C270.522 299.896 269.138 298.35 267.43 298.35C265.723 298.35 264.339 299.896 264.339 301.803C264.339 303.71 265.723 305.256 267.43 305.256Z" fill="#68E1FD"/>
<path d="M282.376 305.256C284.083 305.256 285.467 303.71 285.467 301.803C285.467 299.896 284.083 298.35 282.376 298.35C280.668 298.35 279.284 299.896 279.284 301.803C279.284 303.71 280.668 305.256 282.376 305.256Z" fill="#68E1FD"/>
<path d="M252.492 305.256C254.199 305.256 255.584 303.71 255.584 301.803C255.584 299.896 254.199 298.35 252.492 298.35C250.784 298.35 249.4 299.896 249.4 301.803C249.4 303.71 250.784 305.256 252.492 305.256Z" fill="url(#paint27_linear_48_64)"/>
<path d="M252.471 303.698C253.382 303.698 254.12 302.873 254.12 301.856C254.12 300.84 253.382 300.015 252.471 300.015C251.561 300.015 250.823 300.84 250.823 301.856C250.823 302.873 251.561 303.698 252.471 303.698Z" fill="url(#paint28_linear_48_64)"/>
<path d="M267.43 305.256C269.138 305.256 270.522 303.71 270.522 301.803C270.522 299.896 269.138 298.35 267.43 298.35C265.723 298.35 264.339 299.896 264.339 301.803C264.339 303.71 265.723 305.256 267.43 305.256Z" fill="url(#paint29_linear_48_64)"/>
<path d="M267.396 303.53C268.299 303.53 269.031 302.712 269.031 301.704C269.031 300.695 268.299 299.878 267.396 299.878C266.493 299.878 265.761 300.695 265.761 301.704C265.761 302.712 266.493 303.53 267.396 303.53Z" fill="url(#paint30_linear_48_64)"/>
<path d="M282.376 305.256C284.083 305.256 285.467 303.71 285.467 301.803C285.467 299.896 284.083 298.35 282.376 298.35C280.668 298.35 279.284 299.896 279.284 301.803C279.284 303.71 280.668 305.256 282.376 305.256Z" fill="url(#paint31_linear_48_64)"/>
<path d="M282.342 303.682C283.286 303.682 284.052 302.827 284.052 301.772C284.052 300.718 283.286 299.862 282.342 299.862C281.397 299.862 280.632 300.718 280.632 301.772C280.632 302.827 281.397 303.682 282.342 303.682Z" fill="url(#paint32_linear_48_64)"/>
<path d="M251.138 239.766C247.205 240.966 243.217 242.761 240.953 246.818C239.783 248.797 239.434 251.241 239.988 253.533C241.295 258.583 246.418 259.783 250.789 260.379C259.421 261.51 268.169 262.235 276.863 261.303C283.409 260.57 290.379 258.645 294.544 252.991C296.09 250.928 297.164 248.468 298.115 245.939C302.267 234.372 302.684 221.606 303.101 209.107C303.163 207.579 303.163 206.051 303.163 204.523C303.101 198.495 295.666 196.814 293.58 202.46C292.335 205.852 291.261 208.71 291.015 209.573C288.874 216.884 288.156 226.664 285.002 233.371C282.26 239.224 278.929 237.826 273.457 237.36C265.953 236.725 258.409 237.535 251.144 239.758L251.138 239.766Z" fill="#231F20"/>
<path d="M251.138 239.766C247.205 240.966 243.217 242.761 240.953 246.818C239.783 248.797 239.434 251.241 239.988 253.533C241.295 258.583 246.418 259.783 250.789 260.379C259.421 261.51 268.169 262.235 276.863 261.303C283.409 260.57 290.379 258.645 294.544 252.991C296.09 250.928 297.164 248.468 298.115 245.939C302.267 234.372 302.684 221.606 303.101 209.107C303.163 207.579 303.163 206.051 303.163 204.523C303.101 198.495 295.666 196.814 293.58 202.46C292.335 205.852 291.261 208.71 291.015 209.573C288.874 216.884 288.156 226.664 285.002 233.371C282.26 239.224 278.929 237.826 273.457 237.36C265.953 236.725 258.409 237.535 251.144 239.758L251.138 239.766Z" fill="url(#paint33_linear_48_64)"/>
<path d="M257.567 126.136C258.217 126.931 259.051 127.466 259.646 128.268C261.432 130.529 261.192 134.296 263.34 136.183C264.222 136.871 265.248 137.306 266.315 137.444C269.407 138.04 272.745 137.978 275.365 136.053C277.212 134.663 278.456 132.531 279.469 130.331C281.37 125.816 282.205 120.559 281.076 115.708C279.291 108.328 269.824 100.351 263.573 107.197C261.671 109.26 261.91 112.644 261.548 115.372C261.247 117.564 260.837 119.543 259.407 121.293C258.101 122.683 255.659 123.684 257.567 126.136Z" fill="#FFB4A3"/>
<path d="M258.34 112.109C258.374 112.499 258.477 112.889 258.641 113.24C258.949 113.645 259.366 113.92 259.831 114.035C262.376 115.035 265.009 115.708 267.69 116.029C268.224 115.364 268.826 114.699 269.352 114.035C269.53 114.814 269.592 115.624 269.53 116.426C271.213 117.014 272.923 117.503 274.653 117.893C275.249 125.204 273.409 132.455 271.555 139.499C277.964 142.02 284.777 143.036 291.555 142.494C293.703 134.388 295.132 125.793 293.819 117.442C292.506 109.092 288.224 100.955 281.439 97.2343C276.083 94.3082 269.647 94.5068 264.236 97.0968C259.366 99.4728 257.759 106.723 258.354 112.109H258.34Z" fill="#231F20"/>
<path d="M291.897 177.271C291.069 188.838 290.235 200.344 289.407 211.911C289.113 216.365 288.758 220.888 287.622 225.212C285.686 232.371 281.617 238.567 276.083 242.776C270.426 247.032 263.703 248.896 257.095 250.691C247.273 253.35 241.363 251.547 237.334 259.042C220.72 253.235 218.832 241.073 219.065 235.954C219.304 231.034 222.191 228.337 228.702 225.701C239.626 219.604 244.174 218.389 251.856 214.065C260.782 209.015 265.365 197.708 267.636 186.806C269.907 175.903 265.248 163.763 269.352 153.587C271.733 147.674 279.113 139.629 284.305 146.405C289.414 153.258 292.513 169.302 291.904 177.286L291.897 177.271Z" fill="#68E1FD"/>
<path d="M291.897 177.271C291.069 188.838 290.235 200.344 289.407 211.911C289.113 216.365 288.758 220.888 287.622 225.212C285.686 232.371 281.617 238.567 276.083 242.776C270.426 247.032 263.703 248.896 257.095 250.691C247.273 253.35 241.363 251.547 237.334 259.042C220.72 253.235 218.832 241.073 219.065 235.954C219.304 231.034 222.191 228.344 228.702 225.701C239.626 219.612 244.174 218.389 251.856 214.065C252.499 213.698 253.121 213.301 253.723 212.866H260.604V205.447C264.072 200.061 266.268 193.361 267.629 186.821C269.831 175.919 265.242 163.779 269.346 153.602C271.726 147.681 279.106 139.636 284.298 146.421C289.483 153.205 292.52 169.302 291.904 177.279L291.897 177.271Z" fill="url(#paint34_linear_48_64)"/>
<path d="M283.087 162.419C283.087 162.419 282.075 202.109 276.049 208.847C270.016 215.586 241.165 230.186 238.504 230.942C235.898 231.66 224.714 238.46 224.311 238.681L224.085 228.192L253.716 212.843H260.597V205.424C263.976 198.006 270.351 181.16 270.351 181.16L283.08 162.426L283.087 162.419Z" fill="url(#paint35_linear_48_64)"/>
<path d="M228.162 290.167C227.868 289.999 227.533 289.93 227.204 289.969C226.999 290.045 226.808 290.137 226.609 290.236C222.984 292.765 219.708 295.874 216.903 299.48C216.787 299.679 216.609 299.878 216.609 300.076C216.609 300.405 216.903 300.603 217.143 300.741C219.044 301.742 221.247 301.474 223.271 300.94C226.37 300.16 229.345 298.862 232.095 297.081C233.88 295.951 235.665 295.278 237.033 297.41C237.929 298.8 238.401 301.337 240.426 299.542C242.451 297.746 240.364 291.168 239.414 289.166C235.659 290.824 232.143 291.825 228.155 290.167H228.162Z" fill="#231F20"/>
<path d="M277.088 143.426C275.898 143.227 274.708 143.028 273.579 143.426C272.519 143.831 271.555 144.518 270.782 145.42C265.481 150.806 265.426 163.244 262.923 170.754C260.426 178.272 259.469 182.054 252.8 184.781C249.53 186.11 240.597 186.24 239.051 189.701C238.395 191.092 238.395 192.696 238.395 194.285C238.395 196.944 238.634 199.855 240.241 201.864C242.204 204.187 245.419 204.324 248.278 204.126C252.088 203.858 255.96 203.4 259.708 202.735C262.745 202.208 265.782 201.474 268.395 199.74C271.493 197.746 273.812 194.637 275.659 191.229C280.96 181.458 282.328 169.753 283.518 158.454C283.819 155.459 285.249 149.943 283.997 147.017C282.923 144.427 279.352 143.823 277.088 143.418V143.426Z" fill="#68E1FD"/>
<path d="M277.088 143.426C275.898 143.227 274.708 143.028 273.579 143.426C272.519 143.831 271.555 144.518 270.782 145.42C265.481 150.806 265.426 163.244 262.923 170.754C260.426 178.272 259.469 182.054 252.8 184.781C249.53 186.11 240.597 186.24 239.051 189.701C238.395 191.092 238.395 192.696 238.395 194.285C238.395 196.944 238.634 199.855 240.241 201.864C242.204 204.187 245.419 204.324 248.278 204.126C252.088 203.858 255.96 203.4 259.708 202.735C262.745 202.208 265.782 201.474 268.395 199.74C271.493 197.746 273.812 194.637 275.659 191.229C280.96 181.458 282.328 169.753 283.518 158.454C283.819 155.459 285.249 149.943 283.997 147.017C282.923 144.427 279.352 143.823 277.088 143.418V143.426Z" fill="url(#paint36_linear_48_64)"/>
<path d="M240.406 189.892C240.645 189.907 240.871 189.999 241.062 190.16C241.22 190.412 241.281 190.717 241.24 191.023V195.194C241.24 196.394 241.24 197.792 240.467 198.716C239.811 199.511 238.805 199.786 237.786 199.916C234.633 200.252 231.418 199.587 228.203 199.32C225.248 199.068 222.28 199.114 219.332 199.457C218.99 199.549 218.634 199.503 218.319 199.32C217.669 198.854 218.08 197.723 218.559 196.997C219.386 195.798 220.221 194.537 221.117 193.338C221.541 192.643 222.061 192.039 222.663 191.542C223.791 190.618 225.221 190.542 226.589 190.618C227.929 190.549 229.263 190.351 230.577 190.022C233.826 189.38 237.143 189.342 240.399 189.9L240.406 189.892Z" fill="#FFB4A3"/>
<defs>
<linearGradient id="paint0_linear_48_64" x1="164.926" y1="241.951" x2="165.558" y2="375.612" gradientUnits="userSpaceOnUse">
<stop stop-color="#231F20" stop-opacity="0"/>
<stop offset="1" stop-color="#231F20"/>
</linearGradient>
<linearGradient id="paint1_linear_48_64" x1="165.897" y1="206.356" x2="193" y2="317.226" gradientUnits="userSpaceOnUse">
<stop stop-color="#231F20" stop-opacity="0"/>
<stop offset="1" stop-color="#231F20"/>
</linearGradient>
<linearGradient id="paint2_linear_48_64" x1="181.951" y1="183.475" x2="179.86" y2="262.094" gradientUnits="userSpaceOnUse">
<stop stop-color="#231F20" stop-opacity="0"/>
<stop offset="1" stop-color="#231F20"/>
</linearGradient>
<linearGradient id="paint3_linear_48_64" x1="101.259" y1="280.228" x2="97.0767" y2="324.898" gradientUnits="userSpaceOnUse">
<stop stop-color="#231F20" stop-opacity="0"/>
<stop offset="1" stop-color="#231F20"/>
</linearGradient>
<linearGradient id="paint4_linear_48_64" x1="58.9541" y1="267.553" x2="75.422" y2="286.754" gradientUnits="userSpaceOnUse">
<stop stop-color="#231F20" stop-opacity="0"/>
<stop offset="1" stop-color="#231F20"/>
</linearGradient>
<linearGradient id="paint5_linear_48_64" x1="66.1703" y1="287.508" x2="67.6965" y2="310.584" gradientUnits="userSpaceOnUse">
<stop stop-color="#231F20" stop-opacity="0"/>
<stop offset="1" stop-color="#231F20"/>
</linearGradient>
<linearGradient id="paint6_linear_48_64" x1="51.7447" y1="289.823" x2="50.3457" y2="325.254" gradientUnits="userSpaceOnUse">
<stop stop-color="#231F20" stop-opacity="0"/>
<stop offset="1" stop-color="#231F20"/>
</linearGradient>
<linearGradient id="paint7_linear_48_64" x1="51.5463" y1="295.469" x2="50.8041" y2="314.35" gradientUnits="userSpaceOnUse">
<stop stop-color="#231F20" stop-opacity="0"/>
<stop offset="1" stop-color="#231F20"/>
</linearGradient>
<linearGradient id="paint8_linear_48_64" x1="66.6627" y1="290.404" x2="65.2722" y2="325.843" gradientUnits="userSpaceOnUse">
<stop stop-color="#231F20" stop-opacity="0"/>
<stop offset="1" stop-color="#231F20"/>
</linearGradient>
<linearGradient id="paint9_linear_48_64" x1="66.4574" y1="295.676" x2="65.7237" y2="314.396" gradientUnits="userSpaceOnUse">
<stop stop-color="#231F20" stop-opacity="0"/>
<stop offset="1" stop-color="#231F20"/>
</linearGradient>
<linearGradient id="paint10_linear_48_64" x1="81.5875" y1="290.992" x2="80.1969" y2="326.423" gradientUnits="userSpaceOnUse">
<stop stop-color="#231F20" stop-opacity="0"/>
<stop offset="1" stop-color="#231F20"/>
</linearGradient>
<linearGradient id="paint11_linear_48_64" x1="81.4098" y1="295.798" x2="80.6335" y2="315.381" gradientUnits="userSpaceOnUse">
<stop stop-color="#231F20" stop-opacity="0"/>
<stop offset="1" stop-color="#231F20"/>
</linearGradient>
<linearGradient id="paint12_linear_48_64" x1="170.221" y1="139.794" x2="176.603" y2="139.193" gradientUnits="userSpaceOnUse">
<stop offset="0.02" stop-color="white" stop-opacity="0"/>
<stop offset="0.58" stop-color="white" stop-opacity="0.39"/>
<stop offset="0.68" stop-color="white" stop-opacity="0.68"/>
<stop offset="1" stop-color="white"/>
</linearGradient>
<linearGradient id="paint13_linear_48_64" x1="149.68" y1="149.087" x2="157.217" y2="149.087" gradientUnits="userSpaceOnUse">
<stop stop-color="#231F20" stop-opacity="0"/>
<stop offset="1" stop-color="#231F20"/>
</linearGradient>
<linearGradient id="paint14_linear_48_64" x1="86.8133" y1="260.379" x2="107.552" y2="260.379" gradientUnits="userSpaceOnUse">
<stop stop-color="#231F20" stop-opacity="0"/>
<stop offset="1" stop-color="#231F20"/>
</linearGradient>
<linearGradient id="paint15_linear_48_64" x1="89.2346" y1="187.875" x2="145.477" y2="141.917" gradientUnits="userSpaceOnUse">
<stop stop-color="#231F20" stop-opacity="0"/>
<stop offset="1" stop-color="#231F20"/>
</linearGradient>
<linearGradient id="paint16_linear_48_64" x1="98.9885" y1="255.81" x2="16.882" y2="104.81" gradientUnits="userSpaceOnUse">
<stop stop-color="#231F20" stop-opacity="0"/>
<stop offset="1" stop-color="#231F20"/>
</linearGradient>
<linearGradient id="paint17_linear_48_64" x1="27.0933" y1="196.631" x2="119.899" y2="202.214" gradientUnits="userSpaceOnUse">
<stop stop-color="#231F20" stop-opacity="0"/>
<stop offset="1" stop-color="#231F20"/>
</linearGradient>
<linearGradient id="paint18_linear_48_64" x1="57.6475" y1="171.044" x2="92.5554" y2="160.558" gradientUnits="userSpaceOnUse">
<stop stop-color="#231F20" stop-opacity="0"/>
<stop offset="1" stop-color="#231F20"/>
</linearGradient>
<linearGradient id="paint19_linear_48_64" x1="52.6269" y1="213.416" x2="76.8539" y2="152.011" gradientUnits="userSpaceOnUse">
<stop stop-color="#231F20" stop-opacity="0"/>
<stop offset="1" stop-color="#231F20"/>
</linearGradient>
<linearGradient id="paint20_linear_48_64" x1="81.7448" y1="189.701" x2="99.1691" y2="192.374" gradientUnits="userSpaceOnUse">
<stop stop-color="#231F20" stop-opacity="0"/>
<stop offset="1" stop-color="#231F20"/>
</linearGradient>
<linearGradient id="paint21_linear_48_64" x1="68.1539" y1="269.325" x2="145.61" y2="224.37" gradientUnits="userSpaceOnUse">
<stop stop-color="#231F20" stop-opacity="0"/>
<stop offset="1" stop-color="#231F20"/>
</linearGradient>
<linearGradient id="paint22_linear_48_64" x1="130.774" y1="284.147" x2="90.8874" y2="298.983" gradientUnits="userSpaceOnUse">
<stop stop-color="#231F20" stop-opacity="0"/>
<stop offset="1" stop-color="#231F20"/>
</linearGradient>
<linearGradient id="paint23_linear_48_64" x1="127.812" y1="288.165" x2="95.1194" y2="300.327" gradientUnits="userSpaceOnUse">
<stop stop-color="#231F20" stop-opacity="0"/>
<stop offset="1" stop-color="#231F20"/>
</linearGradient>
<linearGradient id="paint24_linear_48_64" x1="100.575" y1="292.008" x2="98.139" y2="318.054" gradientUnits="userSpaceOnUse">
<stop stop-color="#231F20" stop-opacity="0"/>
<stop offset="1" stop-color="#231F20"/>
</linearGradient>
<linearGradient id="paint25_linear_48_64" x1="260.084" y1="267.553" x2="276.552" y2="286.754" gradientUnits="userSpaceOnUse">
<stop stop-color="#231F20" stop-opacity="0"/>
<stop offset="1" stop-color="#231F20"/>
</linearGradient>
<linearGradient id="paint26_linear_48_64" x1="267.294" y1="287.508" x2="268.828" y2="310.584" gradientUnits="userSpaceOnUse">
<stop stop-color="#231F20" stop-opacity="0"/>
<stop offset="1" stop-color="#231F20"/>
</linearGradient>
<linearGradient id="paint27_linear_48_64" x1="252.868" y1="289.823" x2="251.477" y2="325.255" gradientUnits="userSpaceOnUse">
<stop stop-color="#231F20" stop-opacity="0"/>
<stop offset="1" stop-color="#231F20"/>
</linearGradient>
<linearGradient id="paint28_linear_48_64" x1="252.67" y1="295.469" x2="251.927" y2="314.35" gradientUnits="userSpaceOnUse">
<stop stop-color="#231F20" stop-opacity="0"/>
<stop offset="1" stop-color="#231F20"/>
</linearGradient>
<linearGradient id="paint29_linear_48_64" x1="267.793" y1="290.404" x2="266.394" y2="325.843" gradientUnits="userSpaceOnUse">
<stop stop-color="#231F20" stop-opacity="0"/>
<stop offset="1" stop-color="#231F20"/>
</linearGradient>
<linearGradient id="paint30_linear_48_64" x1="267.588" y1="295.676" x2="266.854" y2="314.396" gradientUnits="userSpaceOnUse">
<stop stop-color="#231F20" stop-opacity="0"/>
<stop offset="1" stop-color="#231F20"/>
</linearGradient>
<linearGradient id="paint31_linear_48_64" x1="282.711" y1="290.992" x2="281.32" y2="326.423" gradientUnits="userSpaceOnUse">
<stop stop-color="#231F20" stop-opacity="0"/>
<stop offset="1" stop-color="#231F20"/>
</linearGradient>
<linearGradient id="paint32_linear_48_64" x1="282.533" y1="295.798" x2="281.765" y2="315.381" gradientUnits="userSpaceOnUse">
<stop stop-color="#231F20" stop-opacity="0"/>
<stop offset="1" stop-color="#231F20"/>
</linearGradient>
<linearGradient id="paint33_linear_48_64" x1="254.154" y1="230.369" x2="317.568" y2="230.369" gradientUnits="userSpaceOnUse">
<stop stop-color="#231F20" stop-opacity="0"/>
<stop offset="1" stop-color="#231F20"/>
</linearGradient>
<linearGradient id="paint34_linear_48_64" x1="211.24" y1="219.054" x2="326.882" y2="184.133" gradientUnits="userSpaceOnUse">
<stop stop-color="#231F20" stop-opacity="0"/>
<stop offset="1" stop-color="#231F20"/>
</linearGradient>
<linearGradient id="paint35_linear_48_64" x1="242.068" y1="193.109" x2="275.555" y2="210.269" gradientUnits="userSpaceOnUse">
<stop stop-color="#231F20" stop-opacity="0"/>
<stop offset="1" stop-color="#231F20"/>
</linearGradient>
<linearGradient id="paint36_linear_48_64" x1="217.129" y1="145.412" x2="351.418" y2="214.199" gradientUnits="userSpaceOnUse">
<stop stop-color="#231F20" stop-opacity="0"/>
<stop offset="1" stop-color="#231F20"/>
</linearGradient>
</defs>
</svg>
